HIERARCHY
ROOT Hips
{
	OFFSET -0.001795 -0.223333 0.028219
	CHANNELS 6 Xposition Yposition Zposition Zrotation Yrotation Xrotation 
	JOINT LeftUpLeg
	{
		OFFSET 0.069520 -0.091406 -0.006815
		CHANNELS 3 Zrotation Yrotation Xrotation
		JOINT LeftLeg
		{
			OFFSET 0.034277 -0.375199 -0.004496
			CHANNELS 3 Zrotation Yrotation Xrotation
			JOINT LeftFoot
			{
				OFFSET -0.013596 -0.397961 -0.043693
				CHANNELS 3 Zrotation Yrotation Xrotation
				JOINT LeftToe
				{
					OFFSET 0.026358 -0.055791 0.119288
					CHANNELS 3 Zrotation Yrotation Xrotation
					End Site
					{
						OFFSET 0.000000 0.000000 0.000000
					}
				}
			}
		}
	}
	JOINT RightUpLeg
	{
		OFFSET -0.067670 -0.090522 -0.004320
		CHANNELS 3 Zrotation Yrotation Xrotation
		JOINT RightLeg
		{
			OFFSET -0.038290 -0.382569 -0.008850
			CHANNELS 3 Zrotation Yrotation Xrotation
			JOINT RightFoot
			{
				OFFSET 0.015774 -0.398415 -0.042312
				CHANNELS 3 Zrotation Yrotation Xrotation
				JOINT RightToe
				{
					OFFSET -0.025372 -0.048144 0.123348
					CHANNELS 3 Zrotation Yrotation Xrotation
					End Site
					{
						OFFSET 0.000000 0.000000 0.000000
					}
				}
			}
		}
	}
	JOINT Spine
	{
		OFFSET -0.002533 0.108963 -0.026696
		CHANNELS 3 Zrotation Yrotation Xrotation
		JOINT Spine1
		{
			OFFSET 0.005487 0.135180 0.001092
			CHANNELS 3 Zrotation Yrotation Xrotation
			JOINT Spine2
			{
				OFFSET 0.001457 0.052922 0.025425
				CHANNELS 3 Zrotation Yrotation Xrotation
				JOINT Neck
				{
					OFFSET -0.002778 0.213870 -0.042857
					CHANNELS 3 Zrotation Yrotation Xrotation
					JOINT Head
					{
						OFFSET 0.005152 0.064970 0.051349
						CHANNELS 3 Zrotation Yrotation Xrotation
						End Site
						{
							OFFSET 0.000000 0.000000 0.000000
						}
					}
				}
				JOINT LeftShoulder
				{
					OFFSET 0.078845 0.121749 -0.034090
					CHANNELS 3 Zrotation Yrotation Xrotation
					JOINT LeftArm
					{
						OFFSET 0.090977 0.030469 -0.008868
						CHANNELS 3 Zrotation Yrotation Xrotation
						JOINT LeftForeArm
						{
							OFFSET 0.259612 -0.012772 -0.027456
							CHANNELS 3 Zrotation Yrotation Xrotation
							JOINT LeftHand
							{
								OFFSET 0.249234 0.008986 -0.001171
								CHANNELS 3 Zrotation Yrotation Xrotation
								End Site
								{
									OFFSET 0.000000 0.000000 0.000000
								}
							}
						}
					}
				}
				JOINT RightShoulder
				{
					OFFSET -0.081759 0.118833 -0.038615
					CHANNELS 3 Zrotation Yrotation Xrotation
					JOINT RightArm
					{
						OFFSET -0.096012 0.032551 -0.009143
						CHANNELS 3 Zrotation Yrotation Xrotation
						JOINT RightForeArm
						{
							OFFSET -0.253742 -0.013329 -0.021401
							CHANNELS 3 Zrotation Yrotation Xrotation
							JOINT RightHand
							{
								OFFSET -0.255298 0.007772 -0.005559
								CHANNELS 3 Zrotation Yrotation Xrotation
								End Site
								{
									OFFSET 0.000000 0.000000 0.000000
								}
							}
						}
					}
				}
			}
		}
	}
}
MOTION
Frames: 13
Frame Time: 0.050000
-0.074877 0.938397 0.019862 -3.427342 30.906248 4.212822 4.821147 -0.447494 -0.190069 2.807905 0.076737 -9.791971 -2.046569 2.087729 7.831730 0.000000 0.000000 0.000000 -0.373124 0.417152 -4.379230 -1.656632 0.051530 -4.062070 2.507921 5.011325 7.240176 0.000000 0.000000 0.000000 -0.503354 -0.003170 -8.475560 -1.242891 0.495426 -0.355248 2.704003 -4.408835 -0.574394 -7.866255 6.165931 -2.738483 0.000000 0.000000 0.000000 -7.988670 10.773541 -5.971450 -64.751701 -24.739877 5.263923 -143.852048 -76.516440 134.350102 0.000000 0.000000 0.000000 6.166165 -12.679945 -5.279937 59.054705 -12.757689 -10.121264 20.253491 40.649571 10.212513 0.000000 0.000000 0.000000 
-0.073861 0.938408 0.019895 -3.375608 31.418894 4.176385 4.767689 -0.448227 -0.240558 2.949116 0.074249 -9.610908 -2.377497 1.420315 7.604562 0.000000 0.000000 0.000000 -0.633107 0.390738 -4.314428 -1.400866 0.043753 -3.681499 2.340525 4.780260 6.624189 0.000000 0.000000 0.000000 -0.533099 -0.021964 -8.754538 -1.273520 0.504924 -0.355499 2.661197 -4.487087 -0.446278 -7.548966 5.949944 -2.720102 0.000000 0.000000 0.000000 -8.295744 10.836199 -6.116129 -66.077690 -25.149874 5.579816 -153.524254 -77.208528 146.567314 0.000000 0.000000 0.000000 6.680560 -13.081320 -5.492885 59.715865 -12.950046 -10.340652 21.027480 46.475878 12.461317 0.000000 0.000000 0.000000 
-0.072800 0.938600 0.019691 -3.318682 31.687496 4.225625 4.509689 -0.423715 -0.229609 3.310885 0.078200 -9.580365 -2.763013 1.055839 7.954028 0.000000 0.000000 0.000000 -0.845432 0.376926 -4.345689 -1.449259 0.067703 -3.357388 2.193770 4.473666 6.663397 0.000000 0.000000 0.000000 -0.465938 -0.027231 -8.902180 -1.307660 0.505138 -0.260867 2.809657 -4.633472 -0.620308 -7.455064 5.887659 -2.852206 0.000000 0.000000 0.000000 -8.947298 11.007577 -6.396866 -66.719596 -24.843907 5.523298 -162.877031 -76.991878 158.135766 0.000000 0.000000 0.000000 6.980467 -14.151086 -5.997024 60.670468 -12.816022 -10.431852 22.925332 52.606230 15.533152 0.000000 0.000000 0.000000 
-0.071712 0.938872 0.019232 -3.352783 32.074666 4.214565 4.387530 -0.420318 -0.467980 3.712461 0.080227 -9.371442 -2.937558 0.533649 7.593286 0.000000 0.000000 0.000000 -1.022156 0.358159 -4.294538 -1.246850 0.055463 -3.095329 2.024538 4.186978 6.231970 0.000000 0.000000 0.000000 -0.447703 -0.040320 -9.167169 -1.175337 0.395762 0.115226 2.857538 -4.414860 -0.964616 -7.130349 5.645567 -2.873917 0.000000 0.000000 0.000000 -9.020257 11.068519 -6.469718 -67.253207 -24.766682 5.493353 -170.675146 -77.437288 167.864666 0.000000 0.000000 0.000000 7.207338 -14.037894 -5.958348 62.179991 -11.729666 -10.086694 23.620524 59.468692 18.682428 0.000000 0.000000 0.000000 
-0.070863 0.939400 0.018466 -3.173191 32.095298 4.291604 4.027582 -0.379587 -0.291083 3.940638 0.083246 -9.448627 -3.143686 0.384249 7.846717 0.000000 0.000000 0.000000 -1.331035 0.350174 -4.509199 -1.402810 0.109584 -2.384777 1.949758 4.082530 5.721797 0.000000 0.000000 0.000000 -0.353664 -0.043763 -9.392359 -1.039221 0.277796 0.547094 2.790096 -4.430812 -1.202032 -7.158192 5.617852 -2.324316 0.000000 0.000000 0.000000 -9.113995 11.396944 -6.619970 -67.294959 -24.696178 5.494503 178.299783 -77.680421 -178.330057 0.000000 0.000000 0.000000 7.289459 -14.076452 -5.989095 63.055740 -9.560289 -9.110302 27.376968 66.942482 24.422622 0.000000 0.000000 0.000000 
-0.070334 0.939880 0.017185 -3.073130 31.769886 4.199978 3.965275 -0.366385 -0.153274 4.059966 0.085513 -9.161320 -3.071153 0.358091 7.675722 0.000000 0.000000 0.000000 -1.651422 0.331515 -4.584883 -1.143200 0.093201 -1.898350 1.855352 3.906181 5.253522 0.000000 0.000000 0.000000 -0.353828 -0.028569 -9.111797 -0.841130 0.248892 0.129074 2.746201 -4.179500 -0.690851 -6.745921 5.322115 -1.990271 0.000000 0.000000 0.000000 -8.931792 11.196993 -6.500751 -66.867324 -24.905890 5.495657 166.168143 -77.218560 -163.187283 0.000000 0.000000 0.000000 7.318425 -13.320722 -5.643658 64.003815 -6.431153 -7.616448 35.463390 75.906747 35.763634 0.000000 0.000000 0.000000 
-0.070068 0.940478 0.015574 -2.950555 31.659161 4.218217 3.675502 -0.332868 -0.045839 4.092023 0.087732 -9.294211 -2.962689 0.705978 7.904872 0.000000 0.000000 0.000000 -1.810601 0.344356 -4.974643 -1.275928 0.135992 -1.271750 1.906062 4.039100 4.988208 0.000000 0.000000 0.000000 -0.353883 -0.024063 -8.987290 -0.643792 0.125167 0.392096 2.726628 -4.108397 -0.819501 -6.381633 4.995618 -1.240373 0.000000 0.000000 0.000000 -8.883147 10.915098 -6.370394 -66.265306 -25.065280 5.577004 153.516462 -75.213095 -146.462225 0.000000 0.000000 0.000000 7.586899 -12.088070 -5.118180 63.949228 -2.744003 -5.719666 60.760248 83.303772 64.289576 0.000000 0.000000 0.000000 
-0.069899 0.940825 0.013998 -2.945965 31.481263 3.993733 3.652255 -0.325686 0.043572 4.252788 0.085535 -8.851717 -2.956276 0.661006 7.837436 0.000000 0.000000 0.000000 -1.832276 0.354057 -5.177955 -1.139471 0.137675 -0.609490 1.977156 4.235037 4.576759 0.000000 0.000000 0.000000 -0.276144 -0.005217 -8.614754 -0.442268 0.077791 0.092824 2.522358 -3.979917 -0.392226 -5.931386 4.679642 -1.222220 0.000000 0.000000 0.000000 -8.475837 10.685933 -6.161682 -66.055586 -25.387968 5.651741 147.806008 -73.009264 -137.850117 0.000000 0.000000 0.000000 7.179462 -11.376252 -4.756647 64.264411 0.616339 -3.901998 135.213576 84.790564 142.193729 0.000000 0.000000 0.000000 
-0.069707 0.941247 0.012688 -2.861701 31.595430 4.004621 3.497359 -0.310668 0.066505 4.256383 0.086710 -9.044155 -3.008594 0.752170 8.064134 0.000000 0.000000 0.000000 -1.830426 0.361998 -5.332757 -1.347018 0.180444 -0.254847 1.949881 4.190657 4.465857 0.000000 0.000000 0.000000 -0.423389 -0.008805 -8.371185 -0.287219 -0.032155 0.366676 2.619748 -4.001384 -0.578210 -5.759806 4.492126 -0.599556 0.000000 0.000000 0.000000 -8.312914 10.150504 -5.897095 -65.631621 -25.427445 5.657743 143.736496 -70.455547 -130.666068 0.000000 0.000000 0.000000 7.281784 -10.062912 -4.179344 64.195306 3.953430 -2.120497 174.466382 81.840872 -174.648267 0.000000 0.000000 0.000000 
-0.069499 0.941563 0.011608 -2.979163 31.795018 3.864913 3.530860 -0.312415 0.181269 4.216802 0.085201 -9.126286 -3.039300 0.867096 8.266389 0.000000 0.000000 0.000000 -1.877901 0.354777 -5.343581 -1.280510 0.173186 -0.143365 1.835078 3.914485 4.647178 0.000000 0.000000 0.000000 -0.511646 -0.013424 -8.261777 0.005704 -0.186276 0.493655 2.479317 -4.092287 -0.373709 -5.608709 4.381051 -0.533869 0.000000 0.000000 0.000000 -8.003614 9.906812 -5.707573 -65.357674 -25.560610 5.659416 143.015978 -68.604752 -128.167412 0.000000 0.000000 0.000000 6.787289 -9.062203 -3.703838 63.935501 6.801878 -0.544703 -169.417488 79.266891 -154.764756 0.000000 0.000000 0.000000 
-0.069320 0.942170 0.010643 -2.968232 31.764847 3.675885 3.473883 -0.297266 0.520802 4.079516 0.085682 -9.348724 -2.902484 1.137446 8.335386 0.000000 0.000000 0.000000 -1.851756 0.344134 -5.159935 -1.386149 0.194318 0.010367 1.930683 4.119295 4.700949 0.000000 0.000000 0.000000 -0.604391 -0.010874 -8.016649 -0.046960 -0.194952 0.734620 2.745385 -4.083616 -0.336903 -5.518576 4.279095 -0.095745 0.000000 0.000000 0.000000 -7.474000 9.498690 -5.369814 -65.103537 -26.131551 5.944055 141.610897 -66.460781 -124.342897 0.000000 0.000000 0.000000 6.495696 -8.018602 -3.236745 63.447138 8.853990 0.528798 -160.643783 77.666046 -143.318013 0.000000 0.000000 0.000000 
-0.069242 0.942613 0.009808 -3.030087 31.893014 3.410702 3.448201 -0.286550 0.889054 4.013653 0.083996 -9.462490 -2.849223 1.148131 8.215364 0.000000 0.000000 0.000000 -1.729542 0.335909 -4.929269 -1.397678 0.196865 0.031648 1.768500 3.761960 4.687791 0.000000 0.000000 0.000000 -0.822575 -0.021943 -7.894476 0.345840 -0.370799 0.685989 2.728021 -4.305277 0.147678 -5.237121 4.107691 -0.275612 0.000000 0.000000 0.000000 -7.074727 9.231564 -5.134711 -64.567668 -26.941003 6.300567 141.062305 -64.314830 -121.453194 0.000000 0.000000 0.000000 6.089688 -7.070948 -2.809352 62.608213 10.667803 1.401728 -155.182514 75.950314 -135.381269 0.000000 0.000000 0.000000 
-0.069269 0.942981 0.009085 -3.092219 31.856750 3.343634 3.521090 -0.291898 0.992519 4.015944 0.084289 -9.490332 -2.834512 1.168663 8.216329 0.000000 0.000000 0.000000 -1.731455 0.334057 -4.904595 -1.266256 0.175766 0.021177 1.814704 3.855611 4.752125 0.000000 0.000000 0.000000 -0.868743 -0.023494 -7.878892 0.400218 -0.411139 0.790285 2.796245 -4.230083 0.212073 -5.118166 3.990279 0.025575 0.000000 0.000000 0.000000 -6.393101 8.751570 -4.739743 -63.896923 -28.230688 6.920929 139.955755 -62.251480 -117.920534 0.000000 0.000000 0.000000 5.600692 -6.437114 -2.522786 61.966994 11.743908 1.951364 -153.178909 74.378695 -131.647852 0.000000 0.000000 0.000000 
